<?xml version="1.0" standalone="no"?>
<!DOCTYPE svg PUBLIC "-//W3C//DTD SVG 20010904//EN"
 "http://www.w3.org/TR/2001/REC-SVG-20010904/DTD/svg10.dtd">
<svg version="1.0" xmlns="http://www.w3.org/2000/svg"
 width="500.000000pt" height="500.000000pt" viewBox="0 0 500.000000 500.000000"
 preserveAspectRatio="xMidYMid meet">

<g transform="translate(0.000000,500.000000) scale(0.100000,-0.100000)"
fill="#000000" stroke="none">
<path d="M0 2500 l0 -2500 2500 0 2500 0 0 2500 0 2500 -2500 0 -2500 0 0
-2500z m2910 1977 c399 -88 733 -270 1015 -552 549 -548 738 -1364 483 -2095
-66 -190 -205 -439 -331 -595 -62 -77 -204 -220 -287 -290 -237 -199 -546
-351 -851 -419 -275 -61 -588 -62 -859 -4 -725 155 -1320 712 -1520 1424 -58
209 -65 265 -65 559 0 246 2 280 24 385 129 622 534 1147 1095 1419 140 68
252 110 386 145 179 47 264 55 540 52 229 -3 267 -6 370 -29z"/>
<path d="M2215 4444 c-636 -98 -1184 -495 -1470 -1064 -144 -288 -206 -552
-206 -876 0 -185 17 -327 56 -484 201 -804 887 -1396 1714 -1480 710 -71 1422
264 1823 860 336 498 425 1125 241 1695 -96 299 -240 538 -458 764 -312 322
-697 521 -1136 585 -133 20 -437 20 -564 0z m609 -113 c663 -116 1219 -591
1435 -1227 78 -229 107 -429 98 -687 -14 -461 -201 -890 -532 -1223 -253 -254
-513 -405 -855 -497 -286 -77 -633 -77 -931 -2 -674 171 -1202 716 -1352 1395
-124 558 3 1113 356 1563 302 386 761 639 1263 697 124 14 382 4 518 -19z"/>
<path d="M1505 3469 c-4 -28 -3 -54 1 -59 5 -4 43 -13 85 -20 41 -7 106 -24
145 -39 l69 -27 0 -859 0 -860 -60 -24 c-33 -13 -98 -31 -145 -41 l-85 -17 -7
-39 c-4 -21 -7 -49 -7 -61 l-1 -23 399 0 399 0 6 31 c3 17 6 46 6 63 l0 32
-77 13 c-77 13 -197 51 -214 68 -5 5 -8 313 -7 713 l3 704 524 -794 c289 -437
531 -803 539 -812 12 -14 30 -18 79 -18 l63 0 0 960 0 960 39 19 c47 25 175
61 213 61 32 0 43 17 51 78 l5 42 -399 0 c-311 0 -400 -3 -403 -12 -3 -7 -7
-32 -10 -55 -6 -38 -4 -43 16 -47 96 -19 207 -50 239 -67 l39 -19 0 -645 c0
-355 -2 -645 -4 -645 -2 0 -225 335 -496 745 l-493 745 -252 0 -253 0 -7 -51z"/>
</g>
</svg>
